name rise32.9588peak41.5061fall63.4684.mot
datacolumns 19
datarows 24
range 15.18827700000000 15.22661200000000
endheader
time	ground_force1_vx	ground_force1_vy	ground_force1_vz	ground_force1_px	ground_force1_py	ground_force1_pz	ground_force2_vx	ground_force2_vy	ground_force2_vz	ground_force2_px	ground_force2_py	ground_force2_pz	ground_torque1_x	ground_torque1_y	ground_torque1_z	ground_torque2_x	ground_torque2_y	ground_torque2_z	
15.18827700000000	11.59388500000000	704.60748000000001	39.02172900000000	0.17180500000000	0.00000000000000	0.11514100000000	0.00000000000000	0.00000000000000	0.00000000000000	0.00000000000000	0.00000000000000	0.00000000000000	0.00000000000000	10.88304600000000	0.00000000000000	0.00000000000000	0.00000000000000	0.00000000000000	
15.18994200000000	11.36298300000000	705.47830199999999	39.07082200000000	0.17089800000000	0.00000000000000	0.11511500000000	0.00000000000000	0.00000000000000	0.00000000000000	0.00000000000000	0.00000000000000	0.00000000000000	0.00000000000000	10.92078700000000	0.00000000000000	0.00000000000000	0.00000000000000	0.00000000000000	
15.19161000000000	11.11645600000000	706.38403200000005	39.12511600000000	0.16997100000000	0.00000000000000	0.11508900000000	0.00000000000000	0.00000000000000	0.00000000000000	0.00000000000000	0.00000000000000	0.00000000000000	0.00000000000000	10.96315200000000	0.00000000000000	0.00000000000000	0.00000000000000	0.00000000000000	
15.19327400000000	10.85387300000000	707.32418700000005	39.18438700000000	0.16902500000000	0.00000000000000	0.11506400000000	0.00000000000000	0.00000000000000	0.00000000000000	0.00000000000000	0.00000000000000	0.00000000000000	0.00000000000000	11.01012200000000	0.00000000000000	0.00000000000000	0.00000000000000	0.00000000000000	
15.19494500000000	10.57485000000000	708.29838400000006	39.24841500000000	0.16806200000000	0.00000000000000	0.11504100000000	0.00000000000000	0.00000000000000	0.00000000000000	0.00000000000000	0.00000000000000	0.00000000000000	0.00000000000000	11.06167500000000	0.00000000000000	0.00000000000000	0.00000000000000	0.00000000000000	
15.19661000000000	10.27905100000000	709.30632900000001	39.31698400000000	0.16708100000000	0.00000000000000	0.11501800000000	0.00000000000000	0.00000000000000	0.00000000000000	0.00000000000000	0.00000000000000	0.00000000000000	0.00000000000000	11.11777800000000	0.00000000000000	0.00000000000000	0.00000000000000	0.00000000000000	
15.19828100000000	9.96618700000000	710.34782499999994	39.38988100000000	0.16608400000000	0.00000000000000	0.11499700000000	0.00000000000000	0.00000000000000	0.00000000000000	0.00000000000000	0.00000000000000	0.00000000000000	0.00000000000000	11.17839300000000	0.00000000000000	0.00000000000000	0.00000000000000	0.00000000000000	
15.19994500000000	9.63601600000000	711.42276200000003	39.46689800000000	0.16507200000000	0.00000000000000	0.11497600000000	0.00000000000000	0.00000000000000	0.00000000000000	0.00000000000000	0.00000000000000	0.00000000000000	0.00000000000000	11.24347300000000	0.00000000000000	0.00000000000000	0.00000000000000	0.00000000000000	
15.20161100000000	9.28834300000000	712.53111999999999	39.54783400000000	0.16404500000000	0.00000000000000	0.11495500000000	0.00000000000000	0.00000000000000	0.00000000000000	0.00000000000000	0.00000000000000	0.00000000000000	0.00000000000000	11.31296600000000	0.00000000000000	0.00000000000000	0.00000000000000	0.00000000000000	
15.20327300000000	8.92302200000000	713.67296299999998	39.63249700000000	0.16300500000000	0.00000000000000	0.11493600000000	0.00000000000000	0.00000000000000	0.00000000000000	0.00000000000000	0.00000000000000	0.00000000000000	0.00000000000000	11.38681100000000	0.00000000000000	0.00000000000000	0.00000000000000	0.00000000000000	
15.20494100000000	8.53995100000000	714.84843100000001	39.72070100000000	0.16195200000000	0.00000000000000	0.11491700000000	0.00000000000000	0.00000000000000	0.00000000000000	0.00000000000000	0.00000000000000	0.00000000000000	0.00000000000000	11.46494100000000	0.00000000000000	0.00000000000000	0.00000000000000	0.00000000000000	
15.20660600000000	8.13907800000000	716.05774199999996	39.81227100000000	0.16088800000000	0.00000000000000	0.11489800000000	0.00000000000000	0.00000000000000	0.00000000000000	0.00000000000000	0.00000000000000	0.00000000000000	0.00000000000000	11.54728000000000	0.00000000000000	0.00000000000000	0.00000000000000	0.00000000000000	
15.20827400000000	7.72039400000000	717.30117800000005	39.90704000000000	0.15981400000000	0.00000000000000	0.11488000000000	0.00000000000000	0.00000000000000	0.00000000000000	0.00000000000000	0.00000000000000	0.00000000000000	0.00000000000000	11.63374700000000	0.00000000000000	0.00000000000000	0.00000000000000	0.00000000000000	
15.20994400000000	7.28393700000000	718.57908399999997	40.00485300000000	0.15873100000000	0.00000000000000	0.11486200000000	0.00000000000000	0.00000000000000	0.00000000000000	0.00000000000000	0.00000000000000	0.00000000000000	0.00000000000000	11.72425100000000	0.00000000000000	0.00000000000000	0.00000000000000	0.00000000000000	
15.21161300000000	6.82978900000000	719.89185899999995	40.10556700000000	0.15763900000000	0.00000000000000	0.11484400000000	0.00000000000000	0.00000000000000	0.00000000000000	0.00000000000000	0.00000000000000	0.00000000000000	0.00000000000000	11.81869500000000	0.00000000000000	0.00000000000000	0.00000000000000	0.00000000000000	
15.21327600000000	6.35807600000000	721.23994500000003	40.20904900000000	0.15654100000000	0.00000000000000	0.11482700000000	0.00000000000000	0.00000000000000	0.00000000000000	0.00000000000000	0.00000000000000	0.00000000000000	0.00000000000000	11.91697600000000	0.00000000000000	0.00000000000000	0.00000000000000	0.00000000000000	
15.21494000000000	5.86896700000000	722.62382200000002	40.31518000000000	0.15543800000000	0.00000000000000	0.11480900000000	0.00000000000000	0.00000000000000	0.00000000000000	0.00000000000000	0.00000000000000	0.00000000000000	0.00000000000000	12.01898000000000	0.00000000000000	0.00000000000000	0.00000000000000	0.00000000000000	
15.21661300000000	5.36267200000000	724.04399899999999	40.42385100000000	0.15433000000000	0.00000000000000	0.11479200000000	0.00000000000000	0.00000000000000	0.00000000000000	0.00000000000000	0.00000000000000	0.00000000000000	0.00000000000000	12.12458900000000	0.00000000000000	0.00000000000000	0.00000000000000	0.00000000000000	
15.21827700000000	4.83944300000000	725.50099899999998	40.53496800000000	0.15321800000000	0.00000000000000	0.11477400000000	0.00000000000000	0.00000000000000	0.00000000000000	0.00000000000000	0.00000000000000	0.00000000000000	0.00000000000000	12.23367700000000	0.00000000000000	0.00000000000000	0.00000000000000	0.00000000000000	
15.21994200000000	4.29957200000000	726.99535600000002	40.64845100000000	0.15210400000000	0.00000000000000	0.11475700000000	0.00000000000000	0.00000000000000	0.00000000000000	0.00000000000000	0.00000000000000	0.00000000000000	0.00000000000000	12.34611000000000	0.00000000000000	0.00000000000000	0.00000000000000	0.00000000000000	
15.22160900000000	3.74338800000000	728.52760000000001	40.76422900000000	0.15098800000000	0.00000000000000	0.11473900000000	0.00000000000000	0.00000000000000	0.00000000000000	0.00000000000000	0.00000000000000	0.00000000000000	0.00000000000000	12.46174700000000	0.00000000000000	0.00000000000000	0.00000000000000	0.00000000000000	
15.22327900000000	3.17126000000000	730.09824900000001	40.88224900000000	0.14987200000000	0.00000000000000	0.11472200000000	0.00000000000000	0.00000000000000	0.00000000000000	0.00000000000000	0.00000000000000	0.00000000000000	0.00000000000000	12.58044000000000	0.00000000000000	0.00000000000000	0.00000000000000	0.00000000000000	
15.22494000000000	2.58359000000000	731.70779400000004	41.00246800000000	0.14875600000000	0.00000000000000	0.11470400000000	0.00000000000000	0.00000000000000	0.00000000000000	0.00000000000000	0.00000000000000	0.00000000000000	0.00000000000000	12.70203500000000	0.00000000000000	0.00000000000000	0.00000000000000	0.00000000000000	
15.22661200000000	1.98082000000000	733.35669399999995	41.12485600000000	0.14764100000000	0.00000000000000	0.11468600000000	0.00000000000000	0.00000000000000	0.00000000000000	0.00000000000000	0.00000000000000	0.00000000000000	0.00000000000000	12.82637000000000	0.00000000000000	0.00000000000000	0.00000000000000	0.00000000000000	
